HIERARCHY
ROOT Hips
{
  OFFSET 3.13124 94.3669 -3.18751
  CHANNELS  6 Xposition Yposition Zposition Zrotation Xrotation Yrotation
  JOINT LeftUpLeg
  {
    OFFSET 8.64259 1.95398 -2.38835
    CHANNELS 3 Zrotation Xrotation Yrotation
    JOINT LeftLeg
    {
      OFFSET 43.7702 0 0
      CHANNELS 3 Zrotation Xrotation Yrotation
      JOINT LeftFoot
      {
        OFFSET 40.6238 0 0
        CHANNELS 3 Zrotation Xrotation Yrotation
        JOINT LeftToeBase
        {
          OFFSET 12.7242 0 0
          CHANNELS 3 Zrotation Xrotation Yrotation
          End Site
          {
            OFFSET 0 0 0
          }
        }
      }
    }
  }
  JOINT RightUpLeg
  {
    OFFSET -8.2249 1.95398 -2.59336
    CHANNELS 3 Zrotation Xrotation Yrotation
    JOINT RightLeg
    {
      OFFSET 43.5653 0 0
      CHANNELS 3 Zrotation Xrotation Yrotation
      JOINT RightFoot
      {
        OFFSET 40.6238 0 0
        CHANNELS 3 Zrotation Xrotation Yrotation
        JOINT RightToeBase
        {
          OFFSET 12.7242 0 0
          CHANNELS 3 Zrotation Xrotation Yrotation
          End Site
          {
            OFFSET 0 0 0
          }
        }
      }
    }
  }
  JOINT Spine
  {
    OFFSET 0.165834 0.87714 6.61349
    CHANNELS 3 Zrotation Xrotation Yrotation
    JOINT Spine1
    {
      OFFSET 7.38962 1.71661e-005 0
      CHANNELS 3 Zrotation Xrotation Yrotation
      JOINT Spine2
      {
        OFFSET 11.9445 1.14441e-005 0
        CHANNELS 3 Zrotation Xrotation Yrotation
        JOINT Spine3
        {
          OFFSET 14.7254 4.19617e-005 0
          CHANNELS 3 Zrotation Xrotation Yrotation
          JOINT Spine4
          {
            OFFSET 10.9679 0 0
            CHANNELS 3 Zrotation Xrotation Yrotation
            JOINT RightShoulder
            {
              OFFSET 2.46616 -1.6653 3.69651
              CHANNELS 3 Zrotation Xrotation Yrotation
              JOINT RightArm
              {
                OFFSET 13.0012 0 0
                CHANNELS 3 Zrotation Xrotation Yrotation
                JOINT RightForeArm
                {
                  OFFSET 28.7848 1.52588e-005 0
                  CHANNELS 3 Zrotation Xrotation Yrotation
                  JOINT RightHand
                  {
                    OFFSET 26.5688 1.52588e-005 0
                    CHANNELS 3 Zrotation Xrotation Yrotation
                    End Site
                    {
                      OFFSET 0 0 0
                    }
                  }
                }
              }
            }
            JOINT LeftShoulder
            {
              OFFSET 2.38034 -1.29275 -3.75231
              CHANNELS 3 Zrotation Xrotation Yrotation
              JOINT LeftArm
              {
                OFFSET 16.3182 6.10352e-005 0
                CHANNELS 3 Zrotation Xrotation Yrotation
                JOINT LeftForeArm
                {
                  OFFSET 27.0901 0 0
                  CHANNELS 3 Zrotation Xrotation Yrotation
                  JOINT LeftHand
                  {
                    OFFSET 24.5451 1.52588e-005 0
                    CHANNELS 3 Zrotation Xrotation Yrotation
                    End Site
                    {
                      OFFSET 0 0 0
                    }
                  }
                }
              }
            }
            JOINT Neck
            {
              OFFSET 5.0226 -0.0266342 0
              CHANNELS 3 Zrotation Xrotation Yrotation
              JOINT Head
              {
                OFFSET 6.69363 2.86102e-005 0
                CHANNELS 3 Zrotation Xrotation Yrotation
                End Site
                {
                  OFFSET 0 0 0
                }
              }
            }
          }
        }
      }
    }
  }
}
MOTION
Frames:	12
Frame Time:	0.0333333
11.8598 87.5552 -93.1777 -89.1471 -2.3819 -90.5748 -174.917 28.9642 89.4296 -2.3224 -23.0196 -3.05267 56.5938 -9.25349 -6.34664 28.7808 6.25319e-006 6.60086e-006 -179.783 -2.17579 89.8731 -27.443 10.7777 0.521237 86.1189 25.8293 8.2453 28.7808 1.40891e-005 2.62054e-005 1.89828 6.69863 -91.3332 13.5203 3.11028 -3.20751 1.84872 2.96619 -3.34121 -20.6999 3.93364 -2.1243 -0.687216 3.93365 -2.12432 97.128 -41.8827 -90.7076 21.1947 19.2179 21.8807 -2.19116 0.500144 -60.7016 7.345 2.98191 36.1586 -119.603 -62.6084 43.7501 -29.4479 -9.21411 10.0632 -7.08816 -9.23239 -49.4501 -7.61935 -1.50301 25.7399 -13.5138 7.94381 46.2978 23.3729 2.4792 -19.6203 
8.54779 86.835 -92.1713 -88.332 -2.17153 -90.6867 -175.058 29.2098 89.5183 -3.87859 -24.1865 -2.65861 57.8199 -8.83812 -5.87571 28.7808 6.25319e-006 6.60086e-006 179.965 -3.10075 89.02 -28.5353 9.58875 0.424944 86.5583 27.2097 8.5975 28.7808 1.40891e-005 2.62054e-005 1.96171 6.61743 -91.066 13.6882 3.35384 -2.89153 2.01785 3.2234 -3.0363 -20.5397 4.06755 -1.74924 -0.527048 4.06756 -1.74926 97.4395 -44.4385 -89.894 20.3265 19.6168 24.3065 1.45372 3.03543 -58.5397 4.97735 2.23014 38.54 -117.693 -62.3023 45.9034 -30.1661 -8.69365 11.1096 -7.215 -8.99379 -50.6734 -8.08057 -1.59298 25.0272 -11.8882 8.39762 44.8232 23.1784 2.33932 -19.5271 
4.86354 86.3008 -90.7195 -88.1232 -2.06069 -91.3734 -175.504 27.3793 88.7885 -7.32633 -30.1718 -3.99509 57.454 -7.55859 -5.07752 28.7808 6.25319e-006 6.60086e-006 179.268 -4.74306 86.8627 -29.8768 7.13877 0.262933 85.4616 28.8495 9.51986 28.7808 1.40891e-005 2.62054e-005 2.04599 6.61893 -90.8692 13.6908 3.59504 -2.58543 2.02181 3.47781 -2.74117 -20.5448 4.20501 -1.38442 -0.532121 4.20502 -1.38444 97.8395 -45.6742 -89.1168 21.3326 18.7538 26.2844 6.26779 7.29722 -54.9398 -1.93926 -0.530455 36.4313 -117.064 -62.5817 46.8029 -30.9101 -8.29957 11.7006 -6.84573 -8.78162 -50.2298 -6.86625 -1.2019 23.4626 -9.71357 8.7424 44.5892 22.2793 1.84497 -20.0625 
0.968757 86.3066 -88.9938 -87.3933 -1.96532 -92.5677 -175.832 25.3249 87.3643 -5.90637 -38.4413 -5.43791 53.3428 0.165055 -0.199329 28.7808 6.25319e-006 6.60086e-006 178.315 -5.59723 83.7775 -31.2524 4.57168 0.08922 80.1541 29.558 11.4328 28.7808 1.40891e-005 2.62054e-005 2.13698 6.57474 -90.5939 13.7839 3.80369 -2.17275 2.11645 3.70455 -2.3384 -20.4595 4.28974 -0.925893 -0.446901 4.2897 -0.925922 97.3202 -47.1971 -89.8004 20.8318 18.9393 31.4331 8.33277 9.04008 -54.7187 0.461606 0.359413 34.4204 -116.521 -63.1588 47.7267 -30.5313 -8.64447 11.8405 -12.7774 -14.1039 -50.8506 -4.35522 -0.582568 23.5161 -6.97431 9.21606 43.8048 21.1566 1.61131 -19.4236 
-2.97134 87.1159 -87.1828 -85.5461 -2.7584 -93.9332 -175.438 27.6802 84.2289 -10.6902 -29.7107 -4.17754 51.3855 6.33038 4.17406 28.7808 6.25319e-006 6.60086e-006 177.702 -4.21445 80.5838 -33.7239 2.05194 -0.103484 69.3267 28.5727 14.4931 28.7808 1.40891e-005 2.62054e-005 1.92671 6.48957 -89.962 13.9605 3.78028 -1.44587 2.29406 3.71384 -1.61102 -20.2848 4.0398 -0.241174 -0.272194 4.03979 -0.241176 95.8438 -52.0317 -91.5762 20.8923 18.5412 28.7325 5.19856 8.73351 -46.6304 -4.7885 -1.73826 39.5742 -113.49 -63.2664 51.4852 -29.0071 -9.68336 10.1841 -21.4922 -22.2461 -51.8066 -1.95198 0.0221426 25.141 -0.940817 11.2497 41.8201 17.9979 2.10487 -19.2267 
-6.53857 87.9508 -85.204 -84.128 -4.88069 -95.7718 -176.606 25.9115 81.1965 -9.54808 -29.8508 -4.51096 52.8208 6.52221 4.23554 28.7808 6.25319e-006 6.60086e-006 177.159 -2.42299 76.8869 -36.2529 -0.860429 -0.295722 57.3424 24.8585 16.2597 28.7808 1.40891e-005 2.62054e-005 1.85969 6.42082 -89.6586 14.0835 3.7087 -0.774315 2.41747 3.67103 -0.937003 -20.16 3.76972 0.377722 -0.147388 3.7697 0.3777 95.5793 -53.7427 -91.7436 23.7114 17.3265 27.3747 1.47312 5.49992 -42.8523 -5.14707 -2.22936 47.4493 -113.304 -63.1456 51.6494 -27.4487 -10.8367 9.05738 -25.0791 -26.7541 -51.2784 -1.58301 0.132823 27.1203 3.27147 11.821 41.6337 15.7133 1.4522 -19.6822 
-10.1204 88.9749 -83.3455 -84.5894 -7.23369 -96.2447 -177.227 21.7313 79.4283 -6.81299 -26.708 -4.60384 53.1137 8.06647 5.29187 28.7808 6.25319e-006 6.60086e-006 172.725 -14.5475 75.7105 -14.0908 0.570209 -0.0250292 54.3819 22.2108 15.4831 28.7808 1.40891e-005 2.62054e-005 1.79513 6.46947 -89.8917 13.9651 3.66221 -0.612553 2.29903 3.63166 -0.773349 -20.2773 3.67708 0.518 -0.264611 3.67705 0.517968 96.2039 -52.3401 -90.9795 24.1552 17.5883 42.3122 -21.602 -10.3872 -64.3741 38.6162 16.7122 41.2098 -114.192 -62.6867 50.3643 -27.7132 -10.7746 7.22554 -19.5122 -24.6367 -46.1307 -0.543227 0.459674 29.249 5.40951 11.5648 43.3116 13.9143 0.141223 -21.4746 
-12.5611 88.9696 -81.6748 -85.0481 -8.44231 -96.5303 -177.122 21.5978 77.6346 -10.658 -24.5281 -3.79823 55.1354 9.67591 6.23084 28.7808 6.25319e-006 6.60086e-006 177.546 -2.41602 75.9732 -41.0521 2.55977 -0.170366 50.4656 19.8215 14.9294 28.7808 1.40891e-005 2.62054e-005 1.89846 6.56612 -89.5459 13.8003 3.72548 -0.822407 2.13437 3.68633 -0.985832 -20.4437 3.79534 0.336464 -0.431036 3.79533 0.336456 95.7141 -50.5887 -91.9444 24.8829 17.3245 44.5111 -23.6299 -10.2794 -67.2203 58.5953 15.3261 21.6032 -115.905 -62.6792 48.2607 -28.5197 -10.3238 5.76973 -9.4172 -15.3464 -40.7149 -2.93282 -0.269663 31.2324 7.21953 11.6251 44.9879 12.3203 -0.675263 -22.3591 
-14.9363 89.1604 -80.2041 -84.9531 -10.026 -95.5435 -176.703 21.1961 77.0307 -12.9422 -22.01 -3.22555 56.9442 10.9003 6.85023 28.7808 6.25319e-006 6.60086e-006 -179.872 5.22467 77.2488 -54.5629 7.08438 -0.142386 45.8936 16.2066 13.3671 28.7808 1.40891e-005 2.62054e-005 1.88682 6.54798 -89.4269 13.8591 3.57315 -1.15911 2.19227 3.51853 -1.31344 -20.3817 3.76198 -0.0323102 -0.369087 3.76197 -0.0323323 93.3513 -51.3317 -95.4456 27.8279 15.8131 40.0869 -24.9362 -12.5177 -64.2162 50.8607 15.9856 27.354 -116.891 -62.5328 46.9886 -28.8484 -10.1413 6.34137 -0.195024 -3.58384 -39.9203 -8.77798 -2.16304 31.4531 8.15532 11.7231 45.1153 11.776 -0.856506 -22.2719 
-17.3749 89.4118 -78.6658 -85.3906 -12.5794 -95.4056 -176.997 19.0884 75.9092 -13.2123 -19.4161 -2.7545 58.2571 11.6778 7.18865 28.7808 6.25319e-006 6.60086e-006 -178.483 9.9762 77.4521 -63.0866 10.8123 -0.0715789 50.4187 16.8129 12.7027 28.7808 1.40891e-005 2.62054e-005 1.74218 6.55087 -89.3718 13.851 3.22072 -1.20455 2.18338 3.16462 -1.34524 -20.3833 3.43367 -0.179818 -0.370612 3.43372 -0.179831 91.2174 -53.3806 -98.2547 25.9486 16.6002 36.611 -24.7988 -14.609 -60.186 39.629 13.0149 29.5664 -116.407 -61.9593 47.3113 -29.3186 -9.68635 5.67678 5.82887 4.07094 -40.7882 -12.8928 -3.52297 31.7217 7.68771 11.362 43.8525 12.7832 -0.822711 -21.5517 
-19.6052 89.4746 -77.1471 -86.0237 -15.3319 -95.9508 -177.578 17.0379 74.3055 -13.6424 -17.1941 -2.26643 59.478 12.402 7.47883 28.7808 6.25319e-006 6.60086e-006 -177.156 14.4785 76.5923 -70.7287 11.1488 -0.20444 56.0806 14.7577 9.94769 28.7808 1.40891e-005 2.62054e-005 1.69123 6.5419 -89.2887 13.8737 3.06963 -1.22453 2.20567 3.01277 -1.35861 -20.3585 3.2956 -0.244438 -0.34582 3.2956 -0.244452 90.7147 -54.4211 -98.7998 23.7148 17.5707 33.3 -27.841 -18.1568 -58.4154 30.7429 11.1406 33.3416 -116.42 -61.1872 46.9311 -29.8555 -9.04855 5.20824 9.03199 7.47464 -43.0421 -15.6424 -4.23266 30.3465 5.35583 9.97246 44.0538 14.4741 -1.82529 -22.4521 
-21.7147 89.4146 -75.6827 -86.3656 -18.6181 -96.0626 -177.738 15.4924 73.1032 -14.8343 -14.1694 -1.8592 61.1372 12.8134 7.5029 28.7808 6.25319e-006 6.60086e-006 -175.795 19.4306 76.2215 -77.6113 14.3396 -0.167864 56.0254 10.8991 7.42337 28.7808 1.40891e-005 2.62054e-005 1.58282 6.46746 -89.1524 14.0234 2.82267 -1.26358 2.35467 2.7643 -1.38558 -20.2044 3.07181 -0.356125 -0.191701 3.07179 -0.356149 92.2843 -54.5048 -96.4945 22.3996 18.062 28.7627 -31.6727 -23.1458 -56.5993 19.7114 8.23207 38.7249 -115.481 -60.5524 47.7906 -30.3638 -8.30316 4.39481 9.71762 7.62731 -45.2156 -16.4403 -4.25045 28.3072 3.45477 8.95122 43.2641 15.3709 -2.2066 -22.8723 
